<?xml version="1.0" standalone="no"?>
<!DOCTYPE svg PUBLIC "-//W3C//DTD SVG 20010904//EN"
 "http://www.w3.org/TR/2001/REC-SVG-20010904/DTD/svg10.dtd">
<svg version="1.0" xmlns="http://www.w3.org/2000/svg"
 width="2456.000000pt" height="2456.000000pt" viewBox="0 0 2456.000000 2456.000000"
 preserveAspectRatio="xMidYMid meet">
<metadata>
Created by potrace 1.14, written by Peter Selinger 2001-2017
</metadata>
<g transform="translate(0.000000,2456.000000) scale(0.100000,-0.100000)"
fill="#000000" stroke="none">
<path d="M262 14760 c-106 -38 -174 -100 -221 -199 l-26 -56 -3 -2348 -2
-2348 767 3 768 3 58 25 c66 28 146 91 172 135 46 77 53 97 80 238 3 15 7 39
10 55 3 15 19 99 36 187 16 88 35 185 41 215 6 30 12 60 13 65 1 15 15 89 41
220 8 44 17 90 20 103 2 12 6 34 9 50 3 15 8 41 10 57 3 17 7 40 10 53 11 49
14 61 19 93 3 19 8 45 11 59 3 14 8 37 10 51 3 21 47 250 60 311 10 49 47 108
86 140 50 40 96 58 162 61 25 1 48 4 50 7 3 3 8 25 12 50 4 24 8 47 11 51 2 3
5 21 8 40 2 19 14 84 26 144 12 61 23 121 26 135 2 14 7 36 10 50 3 14 7 36 9
50 2 14 15 84 29 155 52 270 51 250 23 253 -13 1 -57 9 -98 17 -40 9 -85 19
-99 21 -37 8 -110 50 -155 90 -89 80 -358 234 -407 234 -8 0 -18 3 -22 8 -4 4
-11 7 -14 7 -4 1 -41 11 -82 24 -41 13 -83 25 -92 27 -42 10 -55 12 -98 19
-25 4 -54 9 -65 12 -33 7 -316 6 -370 -2 -27 -3 -57 -6 -65 -6 -26 0 -244 -32
-290 -43 -24 -6 -45 -9 -122 -22 -53 -9 -88 15 -88 61 0 36 23 64 127 156 75
66 237 179 323 225 19 10 42 24 50 29 39 29 269 128 390 169 130 44 297 87
390 101 25 4 59 9 75 12 69 12 130 15 315 17 203 1 294 -5 420 -29 375 -72
453 -86 479 -90 17 -2 38 -6 48 -9 19 -6 58 -13 113 -22 19 -3 42 -7 50 -9 8
-2 31 -7 50 -10 19 -3 49 -9 65 -12 17 -4 35 -8 40 -9 78 -9 119 -86 109 -205
l-5 -67 58 -10 c32 -6 69 -14 83 -17 14 -3 41 -8 60 -11 51 -8 71 -12 105 -19
29 -6 32 -4 73 67 55 95 61 102 101 123 27 13 46 16 85 10 72 -9 82 -11 166
-28 41 -9 91 -18 110 -21 20 -3 63 -12 98 -20 34 -8 62 -12 62 -10 0 2 18 -5
41 -16 30 -16 46 -33 60 -65 22 -49 21 -57 -15 -230 -2 -11 -7 -40 -12 -65 -4
-25 -8 -47 -9 -50 0 -3 -5 -27 -10 -55 -5 -27 -9 -52 -10 -55 -1 -3 -5 -25 -9
-50 -14 -74 -15 -81 -20 -98 -3 -9 -7 -33 -10 -52 -3 -19 -8 -46 -11 -60 -3
-14 -12 -63 -21 -109 -9 -47 -20 -95 -24 -107 -13 -34 -61 -73 -97 -80 -24 -5
-118 6 -183 21 -27 6 -87 18 -206 41 -120 22 -147 30 -172 54 -37 33 -57 104
-65 223 -1 17 -8 21 -62 31 -16 4 -41 9 -55 11 -14 3 -40 8 -57 11 -18 3 -61
11 -95 18 -35 7 -66 12 -69 10 -3 -2 -16 -34 -29 -71 -35 -108 -88 -149 -174
-138 l-44 6 -8 -48 c-4 -26 -8 -50 -9 -53 -2 -8 -17 -105 -17 -107 1 -2 -3
-17 -8 -34 -5 -18 -12 -48 -15 -68 -3 -20 -7 -46 -9 -56 -2 -11 -12 -60 -21
-110 -17 -90 -20 -108 -30 -155 -3 -14 -8 -41 -11 -60 -4 -19 -8 -44 -11 -55
-7 -36 -22 -119 -28 -152 -3 -18 -2 -33 2 -34 80 -8 135 -40 173 -98 17 -24
31 -56 32 -70 0 -14 2 -33 2 -41 1 -8 -4 -46 -10 -85 -14 -82 -14 -81 -47
-250 -14 -71 -29 -148 -33 -170 -4 -22 -8 -44 -10 -50 -1 -5 -5 -27 -9 -49 -4
-21 -9 -48 -11 -60 -7 -29 -12 -56 -18 -92 -2 -17 -14 -80 -26 -140 -12 -60
-28 -143 -35 -184 -8 -41 -16 -84 -19 -95 -6 -30 -38 -197 -42 -220 -1 -11 -8
-45 -13 -75 -18 -89 -19 -132 -5 -179 16 -53 84 -121 137 -138 26 -8 388 -11
1277 -12 l1241 -2 -4 523 c-2 288 -7 539 -11 558 -23 126 -93 297 -171 415
-44 67 -213 245 -232 245 -7 0 -13 4 -13 8 0 4 -26 23 -57 42 -32 19 -61 38
-64 43 -3 5 -9 8 -13 8 -3 0 -31 11 -61 25 -62 28 -162 60 -215 69 -19 3 -43
8 -53 11 -17 5 -91 12 -141 14 -31 0 -14 8 34 15 101 14 279 68 292 89 4 6 8
8 8 3 0 -9 116 53 185 99 93 62 265 226 265 253 0 5 4 11 9 13 5 2 29 35 53
73 78 121 137 264 164 400 2 11 7 34 11 50 10 39 10 933 1 1006 -19 148 -97
353 -179 471 -11 14 -19 29 -19 32 0 3 -8 14 -17 24 -10 10 -31 36 -48 57 -89
115 -259 246 -409 315 -72 34 -196 75 -254 86 -21 3 -48 9 -62 12 -14 3 -990
7 -2170 9 -2089 2 -2146 2 -2198 -17z"/>
<path d="M5922 14680 c-17 -5 -18 -18 -18 -220 l1 -214 30 -6 c17 -3 166 -5
332 -4 l301 1 1 -911 c0 -501 0 -918 0 -927 1 -15 23 -17 221 -17 l220 1 0
927 0 927 332 0 333 -1 0 218 c0 171 -3 220 -13 223 -17 7 -1715 10 -1740 3z"/>
<path d="M7838 14680 l-23 -6 0 -1144 0 -1145 220 0 220 0 0 392 c0 215 3 395
7 398 4 4 78 7 165 7 139 -1 159 -3 170 -19 11 -14 92 -146 146 -238 7 -11 23
-38 37 -60 14 -22 30 -49 37 -60 126 -208 159 -261 166 -263 4 -2 7 -10 7 -17
0 -7 3 -15 8 -17 4 -2 16 -20 26 -41 42 -82 22 -77 315 -77 l262 0 -26 43
c-14 23 -31 53 -38 67 -6 14 -14 27 -17 30 -6 5 -59 92 -70 115 -3 6 -39 66
-80 135 -41 69 -79 132 -83 140 -4 8 -18 32 -30 52 -169 282 -166 276 -148
291 9 8 24 17 35 21 53 18 187 144 241 226 109 164 150 349 124 565 -37 306
-303 567 -612 600 -79 9 -1025 13 -1059 5z m942 -452 c82 -23 139 -64 181
-128 18 -28 34 -59 36 -68 15 -75 18 -113 11 -149 -21 -117 -99 -206 -213
-244 -28 -9 -113 -13 -287 -13 -137 -1 -249 1 -249 4 -3 12 -5 596 -2 602 3 7
497 3 523 -4z"/>
<path d="M9760 14680 l-25 -5 1 -1135 c1 -624 2 -1141 3 -1147 1 -10 52 -13
221 -13 l219 0 0 1150 0 1150 -27 1 c-131 3 -373 3 -392 -1z"/>
<path d="M10562 14679 c-16 -6 -17 -85 -17 -1150 l0 -1144 220 0 220 0 1 393
c1 216 4 396 7 399 3 3 142 6 309 8 317 2 339 4 422 31 264 86 451 298 511
579 11 48 13 244 3 294 -5 25 -10 54 -11 63 -2 10 -6 21 -10 24 -4 4 -7 15 -7
25 0 23 -79 179 -91 179 -5 0 -9 5 -9 10 0 6 -12 24 -27 42 -126 143 -280 224
-467 244 -73 8 -1033 10 -1054 3z m1001 -468 c134 -66 209 -218 171 -348 -6
-24 -9 -43 -6 -43 4 0 2 -4 -3 -8 -6 -4 -17 -20 -25 -36 -32 -62 -116 -126
-186 -142 -16 -3 -140 -7 -277 -7 l-247 -2 -1 25 c0 28 0 520 1 562 l0 26 263
-2 c253 -2 264 -3 310 -25z"/>
<path d="M12383 14682 l-52 -3 0 -1148 0 -1148 672 -1 673 -1 -2 217 c0 119
-2 219 -3 222 0 3 -198 5 -438 4 -241 0 -443 1 -448 3 -7 2 -10 316 -10 928 0
509 -2 925 -5 926 -25 2 -347 3 -387 1z"/>
<path d="M13843 14682 l-33 -3 0 -1149 0 -1149 684 1 c490 1 686 4 689 12 2 6
3 105 2 221 l-1 210 -464 0 -465 0 0 240 0 240 413 3 c383 2 412 3 413 20 3
85 -1 415 -5 419 -3 4 -188 6 -411 6 -223 0 -406 3 -406 6 -1 3 -2 112 -3 242
l-1 236 453 -1 c250 -1 459 2 465 6 8 5 11 76 12 222 0 186 -2 216 -15 217
-64 2 -1302 3 -1327 1z"/>
<path d="M15453 14682 l-23 -3 0 -1149 0 -1148 222 0 223 1 -1 541 c0 297 1
547 4 554 2 7 17 -7 32 -30 16 -24 38 -53 49 -65 12 -12 21 -24 21 -27 0 -5
217 -295 235 -312 7 -8 17 -23 20 -34 3 -11 10 -20 15 -20 5 0 19 -17 31 -37
13 -21 28 -42 34 -48 6 -5 24 -28 40 -50 16 -22 37 -49 47 -59 10 -11 18 -23
18 -27 0 -4 6 -14 13 -21 6 -7 25 -31 41 -53 17 -22 33 -42 36 -45 3 -3 23
-30 45 -60 22 -30 43 -59 47 -65 5 -5 26 -33 48 -61 22 -29 40 -57 40 -63 0
-6 10 -13 23 -15 12 -3 209 -4 437 -3 l415 2 42 105 c61 151 65 163 70 184 2
11 7 24 11 30 5 6 16 32 26 58 9 25 22 48 29 50 7 2 233 4 502 3 l490 0 17
-37 c17 -35 66 -160 127 -323 l27 -70 217 -1 c120 -1 219 1 221 5 2 5 -157
422 -222 581 -5 14 -18 48 -28 75 -9 28 -21 54 -26 59 -4 6 -8 16 -8 24 0 8
-7 28 -14 45 -8 18 -38 93 -66 167 -29 74 -59 150 -67 169 -8 18 -16 39 -18
45 -1 6 -8 25 -14 41 -7 17 -19 46 -26 65 -7 19 -19 49 -26 65 -7 17 -13 33
-14 38 -2 4 -4 9 -5 12 -1 3 -3 8 -5 13 -2 7 -16 44 -40 102 -7 19 -25 64 -39
100 -13 36 -45 119 -71 185 -25 66 -69 179 -96 250 -28 72 -62 159 -77 194
l-27 64 -180 -1 c-99 0 -198 -1 -220 -1 l-41 -1 -53 -137 c-29 -76 -63 -165
-76 -198 -48 -124 -98 -251 -108 -275 -6 -14 -11 -27 -12 -30 -2 -12 -46 -127
-55 -145 -5 -11 -37 -92 -70 -180 -34 -88 -67 -173 -75 -190 -7 -16 -25 -61
-39 -100 -22 -64 -42 -116 -65 -170 -5 -11 -15 -36 -21 -55 -7 -19 -19 -48
-26 -65 -7 -16 -24 -61 -39 -100 -15 -38 -38 -98 -51 -133 -14 -35 -41 -104
-60 -155 -19 -51 -38 -101 -43 -112 -5 -11 -20 -46 -32 -78 -20 -50 -24 -55
-33 -39 -9 15 -113 156 -138 187 -19 23 -184 244 -198 265 -8 12 -20 28 -25
34 -6 6 -38 47 -70 91 -33 44 -65 87 -72 95 -7 8 -62 83 -123 165 -108 145
-121 163 -147 196 -11 13 3 37 86 150 55 74 107 143 115 154 9 11 34 45 56 75
42 58 189 258 203 275 5 5 62 84 129 175 66 90 127 174 137 186 9 12 23 32 31
44 8 12 23 31 33 43 9 11 15 22 13 25 -3 2 -125 4 -272 4 l-268 1 -23 -29
c-13 -16 -55 -72 -92 -124 -38 -52 -76 -104 -85 -115 -9 -11 -34 -45 -56 -75
-22 -30 -43 -59 -47 -65 -5 -5 -19 -26 -33 -45 -13 -19 -30 -42 -37 -50 -8 -8
-55 -71 -104 -140 -50 -69 -99 -136 -110 -150 -11 -14 -47 -63 -81 -110 -34
-47 -65 -86 -70 -88 -4 -2 -8 -8 -8 -14 0 -5 -6 -15 -13 -22 -10 -11 -13 84
-12 505 l0 519 -30 1 c-149 3 -374 3 -392 1z m2862 -772 c80 -207 114 -294
193 -495 32 -82 58 -152 56 -154 -5 -6 -644 -5 -650 1 -4 5 52 162 76 213 5
11 23 58 41 105 17 47 37 99 44 115 23 53 60 150 60 155 0 5 18 51 51 127 8
17 14 38 14 46 0 9 4 18 9 22 5 3 13 19 16 37 9 40 7 43 90 -172z"/>
<path d="M19318 14682 c-16 -3 -8 -22 42 -102 62 -99 117 -199 113 -204 -4 -3
-1 -6 5 -6 7 0 12 -7 12 -15 0 -8 5 -15 10 -15 6 0 10 -4 10 -9 0 -5 34 -67
76 -138 42 -70 86 -146 99 -168 57 -101 128 -221 135 -230 4 -5 23 -37 41 -70
18 -33 44 -78 59 -100 15 -22 28 -43 29 -48 1 -7 13 -29 58 -99 12 -21 23 -40
23 -44 0 -3 10 -20 22 -37 l23 -32 0 -490 0 -490 222 -2 221 -1 0 487 c0 420
2 491 15 512 24 38 132 223 140 239 4 8 16 29 26 45 22 36 272 462 349 595 30
52 58 100 62 105 5 6 23 37 41 70 18 33 35 62 38 65 4 3 12 16 19 30 15 31 43
80 66 115 10 15 15 29 12 32 -3 3 -101 5 -218 5 -192 0 -213 -2 -225 -18 -7
-10 -39 -63 -70 -119 -32 -55 -60 -102 -63 -105 -5 -5 -14 -20 -58 -99 -13
-25 -32 -57 -42 -71 -9 -14 -20 -32 -24 -40 -3 -8 -17 -33 -31 -55 -13 -22
-35 -60 -49 -85 -14 -25 -52 -90 -85 -145 -33 -55 -72 -121 -87 -148 -15 -26
-32 -46 -37 -44 -9 3 -87 123 -87 133 0 3 -12 23 -27 47 -30 47 -245 415 -256
438 -4 8 -47 81 -95 163 l-88 148 -205 2 c-113 0 -213 0 -221 -2z"/>
<path d="M21208 12165 c-2 -3 -42 -7 -89 -9 -46 -3 -120 -12 -164 -21 -44 -10
-84 -18 -90 -19 -5 -1 -20 -8 -32 -14 -13 -7 -23 -11 -23 -8 0 8 -110 -39
-182 -78 -152 -80 -306 -215 -404 -352 -50 -70 -136 -231 -153 -289 -15 -47
-18 -58 -20 -67 -1 -4 -7 -22 -13 -40 -5 -18 -11 -43 -13 -55 -2 -12 -6 -34
-9 -50 -22 -106 -22 -304 0 -405 3 -13 8 -36 10 -53 9 -53 62 -202 95 -267
121 -241 329 -445 562 -553 67 -31 174 -69 225 -80 12 -3 32 -7 44 -10 74 -16
118 -19 248 -19 147 0 167 3 275 29 33 9 67 17 76 19 36 9 177 72 234 104 115
65 200 136 331 277 11 12 34 44 52 71 17 27 36 55 42 61 27 32 121 245 134
303 3 14 10 45 16 70 37 171 32 425 -12 560 -39 119 -56 165 -83 220 -95 198
-263 378 -470 507 -19 12 -90 47 -160 78 -40 18 -147 50 -162 48 -7 0 -13 2
-13 6 0 4 -8 7 -17 7 -10 1 -38 4 -63 9 -25 4 -68 8 -96 10 -28 1 -55 5 -61 8
-6 4 -12 4 -15 2z m142 -440 c201 -39 415 -194 515 -373 28 -49 72 -156 79
-192 2 -14 9 -47 15 -75 16 -81 5 -267 -19 -331 -7 -16 -13 -36 -15 -46 -12
-57 -98 -199 -164 -271 -42 -46 -145 -127 -160 -127 -6 0 -11 -4 -11 -9 0 -14
-155 -77 -241 -97 -13 -3 -73 -8 -134 -10 -232 -7 -432 77 -592 251 -275 297
-269 761 12 1050 130 134 256 203 430 234 47 9 234 6 285 -4z"/>
<path d="M13848 12155 c-1 -1 -24 -5 -49 -8 -86 -10 -279 -67 -303 -89 -6 -4
-16 -8 -24 -8 -8 0 -27 -9 -43 -21 -16 -11 -29 -18 -29 -14 0 5 -49 -23 -60
-35 -3 -3 -32 -23 -65 -45 -83 -55 -231 -205 -290 -295 -44 -66 -117 -198
-125 -225 -1 -5 -7 -21 -12 -35 -58 -152 -87 -387 -66 -545 14 -107 17 -120
51 -242 24 -84 112 -252 181 -343 74 -99 206 -228 264 -259 11 -6 26 -17 34
-24 7 -7 24 -18 38 -25 14 -7 41 -22 60 -32 105 -57 265 -110 385 -128 66 -9
285 -9 355 1 71 10 179 39 240 64 8 3 20 7 25 9 6 1 26 9 45 18 171 80 322
197 433 336 28 36 54 67 57 70 35 32 184 350 163 350 -3 0 -1 6 5 13 6 6 10
15 10 20 1 4 6 33 13 65 6 31 13 76 14 98 1 23 4 46 7 50 9 19 -2 230 -16 299
-55 266 -161 464 -348 648 -166 163 -395 280 -638 323 -30 6 -307 14 -312 9z
m287 -433 c59 -13 73 -17 143 -48 29 -13 55 -24 57 -24 15 0 134 -92 184 -142
135 -133 222 -337 224 -523 3 -255 -104 -478 -302 -634 -48 -37 -158 -101
-186 -107 -5 -1 -39 -12 -75 -24 -83 -28 -264 -36 -361 -15 -182 39 -352 144
-464 286 -123 156 -180 381 -151 596 11 85 83 270 109 281 4 2 7 8 7 14 0 13
56 84 101 128 117 114 212 167 375 209 77 20 252 22 339 3z"/>
<path d="M19403 12102 l-53 -3 0 -1150 0 -1149 220 0 c121 0 221 3 221 8 1 4
2 521 3 1149 l1 1142 -126 3 c-70 2 -139 0 -155 -3 -16 -3 -36 -3 -44 0 -8 3
-39 5 -67 3z"/>
<path d="M6128 12093 c-3 -4 -4 -521 -4 -1148 l1 -1139 33 -7 c18 -4 35 -3 38
2 3 5 10 7 15 3 6 -3 34 -6 62 -5 29 0 228 2 442 4 215 2 401 7 414 10 13 4
62 16 109 28 47 12 93 25 101 30 9 4 48 22 86 39 113 51 233 137 338 243 53
54 97 104 97 112 0 7 4 15 8 17 28 11 112 171 158 297 61 171 78 427 39 599
-3 12 -7 32 -10 44 -51 232 -212 480 -416 638 -77 59 -263 163 -315 175 -10 3
-62 17 -114 31 l-95 27 -491 4 c-271 3 -494 1 -496 -4z m941 -446 c180 -45
300 -115 406 -239 46 -54 133 -198 119 -198 -4 0 -2 -6 4 -12 23 -29 46 -153
46 -248 -1 -151 -34 -259 -119 -390 -41 -63 -128 -160 -144 -160 -4 0 -16 -9
-26 -20 -10 -11 -24 -20 -32 -20 -7 0 -13 -4 -13 -9 0 -12 -126 -67 -201 -87
-51 -14 -113 -18 -304 -19 l-240 -2 2 681 c1 375 2 693 3 707 l0 26 238 -2
c130 -2 248 -5 261 -8z"/>
<path d="M8300 12073 c-3 -215 0 -2266 3 -2269 2 -2 176 -3 388 -3 211 0 393
0 404 0 11 0 43 0 70 0 28 1 61 0 75 -1 14 -1 32 -1 40 -1 49 2 144 0 151 -5
4 -2 10 0 13 5 3 5 21 6 39 2 18 -5 41 -5 51 -1 11 3 38 4 60 0 74 -10 76 -8
77 78 0 42 1 141 2 220 1 89 -2 142 -8 143 -5 1 -215 2 -465 3 l-455 1 -1 243
-1 242 414 0 413 0 0 220 0 220 -37 1 c-21 0 -207 1 -413 2 l-375 2 -1 241 0
241 463 -1 463 -1 1 30 c0 17 1 117 2 222 l2 193 -687 0 -688 0 0 -27z"/>
<path d="M10145 12088 c-2 -7 -9 -47 -15 -88 -19 -130 -21 -144 -25 -169 -2
-13 -7 -45 -11 -70 -7 -52 -9 -71 -18 -121 -3 -19 -8 -51 -10 -70 -3 -19 -8
-53 -11 -75 -3 -22 -8 -55 -10 -72 -7 -45 -14 -96 -26 -173 -6 -36 -12 -81
-15 -100 -2 -19 -9 -64 -15 -100 -6 -36 -12 -81 -15 -100 -2 -19 -7 -46 -9
-60 -3 -14 -7 -50 -11 -80 -3 -30 -8 -57 -9 -60 -2 -3 -7 -33 -10 -65 -4 -33
-9 -63 -11 -67 -2 -3 -6 -28 -9 -55 -7 -67 -11 -95 -29 -203 -8 -52 -18 -113
-21 -135 -3 -22 -8 -58 -11 -80 -3 -22 -8 -51 -10 -65 -3 -14 -7 -43 -10 -65
-2 -22 -6 -49 -8 -60 -5 -24 -20 -126 -21 -140 -1 -15 43 -21 96 -15 25 3 57
3 71 -1 14 -4 31 -3 38 1 7 4 26 5 44 1 17 -3 54 -4 81 -1 28 3 62 2 77 -1 30
-8 33 -3 43 66 4 22 11 69 16 105 6 36 12 78 14 93 6 38 15 107 20 137 2 14 6
45 10 70 3 25 8 58 11 73 3 16 7 38 9 50 4 34 55 378 61 412 3 17 7 45 9 64 2
19 7 48 9 65 3 17 8 49 11 71 4 22 8 50 10 61 2 12 7 48 11 80 4 33 9 61 9 64
6 23 18 127 16 135 -2 7 1 7 7 0 6 -5 47 -93 92 -195 45 -102 92 -207 105
-235 13 -27 44 -97 70 -155 25 -58 52 -119 60 -136 57 -125 97 -214 100 -224
1 -3 11 -26 23 -52 12 -27 30 -67 41 -90 32 -74 102 -230 142 -316 22 -46 39
-87 39 -91 0 -5 9 -19 19 -33 16 -19 27 -24 56 -22 19 2 40 6 45 9 9 6 61 108
66 130 1 6 23 54 48 108 25 54 46 100 46 102 0 2 18 43 40 90 22 47 40 88 40
89 0 2 17 39 37 82 20 44 37 81 38 84 4 11 25 59 55 125 18 39 59 131 92 205
33 74 68 154 79 178 10 23 28 63 40 90 11 26 29 65 39 87 11 22 33 72 49 110
17 39 31 67 32 63 1 -5 2 -11 3 -15 2 -8 13 -77 21 -133 2 -14 9 -61 15 -105
7 -44 13 -87 15 -95 1 -8 6 -40 11 -70 4 -30 8 -57 9 -60 1 -3 5 -34 9 -70 5
-36 10 -74 12 -85 2 -11 6 -36 9 -55 3 -19 6 -44 9 -55 2 -11 6 -41 10 -66 4
-25 9 -57 11 -70 2 -13 7 -46 10 -74 4 -27 9 -59 10 -70 2 -11 6 -38 9 -60 3
-22 8 -49 10 -60 2 -11 7 -45 11 -75 4 -30 9 -62 10 -71 2 -9 7 -40 10 -70 4
-30 9 -63 11 -74 2 -11 6 -38 9 -60 3 -22 9 -43 14 -48 4 -4 34 -7 67 -7 32 1
70 0 84 0 14 -1 31 -1 38 -1 22 2 41 2 110 2 105 0 137 3 135 14 -1 6 -5 37
-8 70 -4 33 -9 62 -10 65 -2 3 -7 33 -10 65 -4 33 -9 69 -11 80 -2 11 -9 52
-14 90 -6 39 -13 82 -15 96 -3 14 -7 43 -10 65 -2 21 -7 50 -9 64 -3 14 -8 48
-11 75 -3 28 -8 57 -10 65 -2 8 -6 35 -9 60 -4 25 -8 56 -10 70 -3 14 -10 61
-16 105 -12 85 -17 118 -25 164 -7 44 -17 113 -20 141 -1 14 -5 39 -8 55 -3
17 -9 55 -12 85 -4 30 -11 74 -16 98 -5 24 -11 62 -14 85 -8 69 -18 140 -30
207 -5 29 -16 102 -21 145 -2 17 -6 46 -9 65 -8 50 -15 90 -19 125 -10 74 -18
121 -21 133 -3 9 -57 12 -225 12 -219 0 -221 0 -229 -22 -5 -13 -24 -54 -42
-93 -18 -38 -33 -72 -34 -75 -5 -15 -28 -67 -64 -144 -23 -49 -41 -90 -41 -92
0 -2 -13 -32 -29 -66 -30 -66 -57 -127 -92 -205 -52 -117 -72 -161 -89 -198
-10 -22 -27 -60 -38 -85 -11 -25 -32 -72 -47 -105 -14 -33 -32 -73 -40 -90 -7
-16 -26 -59 -43 -95 -16 -36 -37 -82 -45 -102 -16 -38 -37 -51 -37 -23 0 8 -4
23 -10 33 -9 15 -61 130 -95 207 -16 38 -51 116 -80 180 -13 28 -79 176 -148
331 -69 154 -137 305 -150 335 -14 30 -34 75 -46 102 -11 26 -31 68 -43 95
-12 26 -23 49 -23 52 -1 3 -7 17 -15 33 l-13 27 -219 0 c-166 0 -220 -3 -223
-12z"/>
<path d="M15399 12078 c-3 -108 0 -2270 3 -2273 2 -3 164 -4 359 -4 195 0 363
0 374 0 11 0 43 0 70 0 28 1 61 0 75 -1 14 -1 32 -1 40 -1 49 2 144 0 151 -5
4 -2 10 0 13 5 3 5 21 6 39 2 18 -5 41 -5 52 -1 10 4 35 4 54 1 20 -3 54 -5
76 -3 l40 3 -2 212 c0 117 -2 217 -2 222 -1 7 -157 10 -448 10 l-448 0 -2 915
c-1 503 -2 921 -2 928 -1 9 -52 12 -221 12 l-220 0 -1 -22z"/>
<path d="M16869 12083 c0 -24 0 -2154 0 -2224 1 -54 2 -57 29 -61 15 -2 38 -1
52 2 14 4 39 3 55 0 17 -4 39 -4 50 0 11 4 31 4 44 0 13 -3 45 -3 70 0 25 3
60 3 76 0 17 -3 38 -4 48 -2 16 4 17 67 17 1153 l0 1149 -220 0 c-203 0 -220
-1 -221 -17z"/>
<path d="M17447 12093 c-3 -7 -1 -398 2 -428 1 -6 118 -10 331 -9 l330 1 0
-929 0 -928 68 -1 c37 -1 72 0 77 1 6 1 25 1 43 1 17 -1 38 -2 45 -2 6 0 35 0
62 0 28 0 59 1 70 1 11 0 34 0 50 0 l30 1 0 927 0 927 330 1 330 0 1 222 1
222 -883 0 c-486 0 -885 -3 -887 -7z"/>
<path d="M22598 12031 c-2 -38 0 -87 3 -110 3 -23 2 -44 -1 -46 -4 -3 -6 -19
-3 -37 5 -43 5 -46 3 -160 -1 -54 1 -102 4 -107 4 -5 2 -12 -3 -15 -4 -3 -7
-20 -4 -38 5 -43 5 -46 3 -160 -1 -54 1 -102 4 -107 4 -5 2 -12 -2 -15 -5 -3
-8 -18 -5 -33 2 -16 3 -53 2 -83 0 -30 0 -64 1 -75 1 -11 1 -26 1 -32 0 -7 0
-43 0 -80 0 -76 -1 -99 -5 -128 -1 -11 1 -32 5 -47 4 -14 5 -29 2 -32 -7 -6
-5 -265 2 -276 3 -5 1 -11 -4 -14 -8 -5 -6 -57 3 -81 2 -5 0 -19 -4 -30 -4
-11 -4 -32 1 -47 4 -14 5 -29 2 -32 -3 -3 -5 -45 -4 -93 1 -48 2 -94 2 -100 0
-7 0 -42 0 -78 0 -36 -1 -73 -1 -82 -1 -73 0 -86 4 -90 3 -3 33 -4 68 -3 35 1
74 1 88 0 14 -1 31 -1 38 -1 18 1 40 2 111 1 35 0 66 2 68 4 3 2 17 0 33 -4
19 -6 30 -4 32 3 2 7 3 351 3 765 -1 413 0 752 1 752 1 0 15 -19 31 -43 56
-84 167 -242 174 -247 3 -3 8 -10 10 -15 2 -6 56 -84 119 -173 63 -90 122
-174 130 -187 8 -13 67 -96 130 -186 63 -90 158 -227 212 -304 53 -77 102
-145 107 -152 6 -7 11 -17 11 -23 0 -5 3 -10 8 -10 4 -1 34 -41 67 -90 l60
-89 45 -1 c25 0 59 -1 75 -1 17 0 46 0 65 0 19 1 44 1 55 0 11 0 62 0 113 1
l92 0 0 1150 0 1150 -220 0 c-169 0 -220 -3 -221 -12 0 -7 -1 -350 -1 -761 -1
-411 -4 -744 -8 -740 -21 22 -230 326 -230 333 0 5 -4 10 -8 12 -5 2 -33 38
-63 82 -30 43 -73 106 -97 140 -24 33 -68 97 -98 141 -30 44 -78 112 -105 150
-27 39 -69 97 -91 130 -23 33 -56 80 -72 104 -17 23 -35 50 -41 59 -5 8 -15
23 -22 31 -7 9 -48 68 -92 131 -44 63 -84 120 -89 126 -5 5 -15 21 -22 35 -7
13 -18 27 -24 31 -6 4 -109 8 -228 8 l-216 0 -4 -69z"/>
<path d="M2343 11828 c-29 -24 -52 -46 -52 -50 -1 -3 17 -25 39 -47 82 -83
248 -142 385 -137 44 1 91 7 105 13 14 6 29 11 33 11 8 0 61 39 100 72 17 14
25 36 9 26 -26 -16 -217 -25 -282 -13 -97 18 -185 63 -240 123 -22 24 -42 44
-43 44 -2 0 -26 -19 -54 -42z"/>
</g>
</svg>
