<svg xmlns="http://www.w3.org/2000/svg" xmlns:xlink="http://www.w3.org/1999/xlink" viewBox="0,0,256,256" width="80px" height="80px" fill-rule="nonzero"><g fill="#950606" fill-rule="nonzero" stroke="none" stroke-width="1" stroke-linecap="butt" stroke-linejoin="miter" stroke-miterlimit="10" stroke-dasharray="" stroke-dashoffset="0" font-family="none" font-weight="none" font-size="none" text-anchor="none" style="mix-blend-mode: normal"><g transform="scale(3.2,3.2)"><path d="M71.39453,5.00781c-0.92187,0 -1.84766,0.34766 -2.54687,1.04688l-19.46875,19.47266l-5.33203,-5.33203c-0.80859,-0.80859 -1.875,-1.21094 -2.94141,-1.21094c-1.06641,0 -2.13672,0.40234 -2.94531,1.21094l-1.76562,1.76563c-1.43359,-0.82422 -3.24219,-0.82031 -4.62891,0.19531l-27.29687,19.97656l3.07813,3.08203c0.85156,0.85156 2.00391,1.08594 3.13672,0.99219c-0.09375,1.12109 0.125,2.26953 0.99219,3.13672l1.19531,1.19531c0.83594,0.83594 1.95703,1.06641 3.06641,0.99609c-0.07031,1.10156 0.15234,2.21875 0.99609,3.0625l2.07422,2.07422c0.89844,0.90234 2.11719,1.12109 3.29688,0.98047c-0.14062,1.17969 0.07813,2.39844 0.97656,3.29688l1.97266,1.97266c0.91406,0.91406 2.14453,1.11719 3.32813,0.96484c-0.15234,1.1875 0.05859,2.41797 0.96484,3.32422l1.12891,1.13281c0.90234,0.90234 2.10547,1.09766 3.27344,0.95703c-0.14062,1.18359 0.07422,2.39063 0.96094,3.27734l2.95703,2.95313l19.97656,-27.29687c1.01953,-1.38672 1.02344,-3.19531 0.19531,-4.62891l1.76563,-1.76562c1.61719,-1.61719 1.61719,-4.26953 0,-5.88672l-5.33203,-5.33203l19.47266,-19.46875c0.91406,-0.91797 1.16797,-2.20703 0.88672,-3.39062h0.82422l-1.71094,-1.70703c-0.69922,-0.69922 -1.625,-1.05078 -2.55078,-1.04687zM71.39453,6.99219c0.41016,0 0.82031,0.16016 1.13672,0.47656c0.63281,0.63281 0.63281,1.63281 0,2.26563l-19.46875,19.47266l-2.26953,-2.26953l19.47266,-19.46875c0.31641,-0.31641 0.72266,-0.47266 1.12891,-0.47656zM41.10547,20.96875c0.55078,0 1.10156,0.21484 1.53125,0.64063l15.75391,15.75391c0.85156,0.85547 0.85156,2.20703 0,3.0625l-3.01953,3.01953l0.67188,0.70703c0.75781,0.80078 0.83984,2.00781 0.1875,2.90234l-18.60156,25.41406l-1.30078,-1.30469c-0.59766,-0.59375 -0.74219,-1.47656 -0.41406,-2.21875l0.1875,-0.42187l0.05078,-0.04687l0.05469,-0.08203l0.15234,-0.88281l-0.61328,-0.65234l-0.89062,0.10938l-0.23828,0.22266l-0.31641,0.13672c-0.73047,0.32031 -1.59766,0.21094 -2.21094,-0.40234l-1.13281,-1.12891c-0.58984,-0.59375 -0.72656,-1.45312 -0.41406,-2.1875l0.25781,-0.625l-0.05078,-0.05078l0.13672,-0.54297l-0.5625,-0.69141l-0.79297,0.03125l-0.05859,-0.05859l-0.61719,0.25391c-0.72656,0.30469 -1.58594,0.18359 -2.18359,-0.41797l-1.97266,-1.97266c-0.59375,-0.58984 -0.73047,-1.44141 -0.44531,-2.16016l0.25,-0.61719l-0.05859,-0.05469l0.14844,-0.45312l-0.51172,-0.73437l-0.86328,-0.02734l-0.03125,-0.03516l-0.60937,0.24609c-0.71484,0.28906 -1.56641,0.14844 -2.15625,-0.4375l-2.07422,-2.07422v-0.00391c-0.58203,-0.58203 -0.71484,-1.40234 -0.44141,-2.11719l0.04297,-0.12109l0.03516,-0.01953l0.07422,-0.06641l0.34375,-0.82812l-0.46094,-0.76953l-0.89062,-0.09375l-0.30078,0.17969l-0.07812,0.06641l-0.02734,0.07031l-0.23828,0.08984c-0.71875,0.27344 -1.54687,0.125 -2.12109,-0.44922l-1.19531,-1.19922c-0.57812,-0.57422 -0.70703,-1.37891 -0.45312,-2.08594l0.09375,-0.26562l0.05078,-0.02734l0.08203,-0.05859l0.40234,-0.80078l-0.40234,-0.80078l-0.87891,-0.16016l-0.31641,0.16016l-0.07812,0.05859l-0.07422,0.14453l-0.46484,0.16406c-0.71484,0.25781 -1.52734,0.10938 -2.08984,-0.45703l-1.42969,-1.42578l25.41406,-18.60156c0.89453,-0.65234 2.10156,-0.57031 2.90234,0.1875l0.70703,0.67188l3.01953,-3.01953c0.42578,-0.42578 0.98047,-0.64062 1.53125,-0.64062zM39,25c-0.55078,0 -1,0.44922 -1,1c0,0.55078 0.44922,1 1,1c0.55078,0 1,-0.44922 1,-1c0,-0.55078 -0.44922,-1 -1,-1zM42,28c-0.55078,0 -1,0.44922 -1,1c0,0.55078 0.44922,1 1,1c0.55078,0 1,-0.44922 1,-1c0,-0.55078 -0.44922,-1 -1,-1zM31.71875,29.04297l-0.31641,0.15625l-0.07812,0.05859l-0.40234,0.80078l0.39844,0.80078l0.88281,0.16016l0.3125,-0.16016l0.08203,-0.05859l0.40234,-0.80078l-0.40234,-0.80078zM45,31c-0.55078,0 -1,0.44922 -1,1c0,0.55078 0.44922,1 1,1c0.55078,0 1,-0.44922 1,-1c0,-0.55078 -0.44922,-1 -1,-1zM28.42969,31.48828l-0.31641,0.15625l-0.08203,0.05859l-0.40234,0.80078l0.40234,0.80469l0.87891,0.16016l0.32031,-0.15625l0.07813,-0.0625l0.40234,-0.80078l-0.39844,-0.80078zM35.64844,33.0625l-0.30469,0.18359l-0.07422,0.0625l-0.34375,0.82813l0.46094,0.76953l0.89063,0.09375l0.30078,-0.17578l0.07813,-0.07031l0.34375,-0.82812l-0.46094,-0.76953zM25.14063,33.9375l-0.31641,0.15625l-0.07812,0.05859l-0.40234,0.80078l0.39844,0.80078l0.88281,0.16016l0.3125,-0.15625l0.08203,-0.05859l0.40234,-0.80078l-0.40234,-0.80469zM48,34c-0.55078,0 -1,0.44922 -1,1c0,0.55078 0.44922,1 1,1c0.55078,0 1,-0.44922 1,-1c0,-0.55078 -0.44922,-1 -1,-1zM32.54688,35.75l-0.30078,0.17578l-0.07422,0.07031l-0.34375,0.82813l0.45703,0.76953l0.89063,0.09375l0.30469,-0.18359l0.07422,-0.06641l0.34375,-0.82812l-0.46094,-0.76562zM21.85156,36.38672l-0.31641,0.15625l-0.08203,0.05859l-0.40234,0.80078l0.40234,0.80078l0.87891,0.16016l0.32031,-0.16016l0.07813,-0.05859l0.40234,-0.80078l-0.39844,-0.80078zM51,37c-0.55078,0 -1,0.44922 -1,1c0,0.55078 0.44922,1 1,1c0.55078,0 1,-0.44922 1,-1c0,-0.55078 -0.44922,-1 -1,-1zM40.58203,38.09375l-0.28906,0.19922l-0.07031,0.07031l-0.28516,0.85156l0.51563,0.73438l0.89453,0.03125l0.28906,-0.20312l0.07031,-0.07031l0.28125,-0.84766l-0.50781,-0.73828zM29.44922,38.43359l-0.30469,0.17578l-0.07422,0.06641l-0.33984,0.82813l0.45703,0.77344l0.89063,0.09375l0.30078,-0.18359l0.07422,-0.0625l0.34375,-0.82812l-0.45703,-0.76953zM18.5625,38.83203l-0.31641,0.15625l-0.07812,0.05859l-0.40234,0.80078l0.39844,0.80469l0.88281,0.16016l0.3125,-0.16016l0.08203,-0.05859l0.40234,-0.80078l-0.40234,-0.80078zM54,40c-0.55078,0 -1,0.44922 -1,1c0,0.55078 0.44922,1 1,1c0.55078,0 1,-0.44922 1,-1c0,-0.55078 -0.44922,-1 -1,-1zM37.68359,40.98828l-0.28906,0.20313l-0.07031,0.07422l-0.28125,0.84766l0.50781,0.73438l0.89844,0.03125l0.28516,-0.20312l0.07422,-0.07031l0.28125,-0.85156l-0.51172,-0.73437zM26.34766,41.11328l-0.30078,0.18359l-0.07422,0.0625l-0.34375,0.82813l0.46094,0.76953l0.89063,0.09766l0.30078,-0.17969l0.07813,-0.06641l0.33984,-0.82812l-0.45703,-0.76953zM15.27344,41.28125l-0.31641,0.15625l-0.08203,0.05859l-0.40234,0.80078l0.40234,0.80078l0.87891,0.16016l0.32031,-0.15625l0.07813,-0.05859l0.40234,-0.80469l-0.39844,-0.80078zM46.41016,43.08984l-0.89453,0.03516l-0.26953,0.21875l-0.07031,0.07813l-0.21875,0.87109l0.5625,0.69141l0.89844,-0.03125l0.27344,-0.22266l0.0625,-0.07422l0.22266,-0.87109zM23.25,43.80078l-0.30078,0.17969l-0.07422,0.06641l-0.34375,0.82813l0.45703,0.76953l0.89063,0.09375l0.30469,-0.17969l0.07422,-0.06641l0.33984,-0.82812l-0.45703,-0.76953zM34.78125,43.89063l-0.28516,0.20313l-0.07422,0.06641l-0.28125,0.85156l0.51563,0.73828l0.89063,0.02734l0.29297,-0.19922l0.06641,-0.07422l0.28516,-0.84766l-0.51172,-0.73437zM43.73047,46.19141l-0.89453,0.03125l-0.27344,0.22656l-0.06641,0.07422l-0.21875,0.86719l0.5625,0.69922l0.89453,-0.03906l0.27734,-0.22266l0.0625,-0.07422l0.22266,-0.86719zM20.15234,46.48438l-0.30469,0.17969l-0.07422,0.06641l-0.34375,0.82813l0.46094,0.76953l0.89063,0.09375l0.30078,-0.17969l0.07422,-0.06641l0.34375,-0.82812l-0.45703,-0.76953zM31.88672,46.78906l-0.29297,0.19922l-0.06641,0.07422l-0.28516,0.84766l0.51172,0.73438l0.89844,0.03125l0.28516,-0.20312l0.07422,-0.06641l0.28125,-0.85156l-0.51172,-0.73828zM50.34375,47.0625l-0.89062,0.10156l-0.25781,0.24219l-0.05859,0.07813l-0.15234,0.88672l0.61328,0.64844l0.89063,-0.10156l0.25781,-0.24609l0.05859,-0.07812l0.15234,-0.88281zM41.04688,49.29297l-0.89062,0.03516l-0.27734,0.21875l-0.06641,0.07813l-0.21875,0.86719l0.5625,0.69531l0.89453,-0.03125l0.27734,-0.22266l0.0625,-0.07422l0.22266,-0.87109zM28.98438,49.6875l-0.28516,0.20313l-0.07422,0.07031l-0.28125,0.85156l0.51172,0.73438l0.89453,0.03125l0.28906,-0.20312l0.07031,-0.07422l0.28125,-0.84766l-0.51172,-0.73437zM47.90625,50.35938l-0.89062,0.10547l-0.25391,0.24219l-0.05859,0.07813l-0.15234,0.88672l0.61719,0.64844l0.89063,-0.10156l0.25391,-0.24609l0.0625,-0.07812l0.15234,-0.88281zM38.36719,52.39063l-0.89453,0.03516l-0.27344,0.22656l-0.06641,0.07031l-0.22266,0.87109l0.56641,0.69922l0.89453,-0.03906l0.27344,-0.22266l0.06641,-0.07422l0.22266,-0.86719zM26.08594,52.58984l-0.28906,0.19922l-0.07031,0.07031l-0.28516,0.84766l0.51172,0.73828l0.89844,0.02734l0.28906,-0.19922l0.07031,-0.07031l0.28516,-0.85156l-0.51172,-0.73437zM45.47266,53.66016l-0.88672,0.10547l-0.25781,0.24219l-0.05859,0.08203l-0.14844,0.87891l0.61328,0.65234l0.89063,-0.10547l0.25391,-0.23828l0.05859,-0.08594l0.15625,-0.87891zM35.6875,55.49609l-0.89453,0.03516l-0.27734,0.21875l-0.0625,0.07813l-0.22266,0.86719l0.56641,0.69531l0.89063,-0.03125l0.27734,-0.22266l0.06641,-0.07812l0.21875,-0.86719zM43.04297,56.96094l-0.89062,0.10156l-0.25781,0.24609l-0.05469,0.08203l-0.15234,0.87891l0.61328,0.65234l0.89063,-0.10547l0.25781,-0.24219l0.05859,-0.07812l0.14844,-0.88672zM33.00391,58.59375l-0.89453,0.03516l-0.27734,0.22656l-0.0625,0.07031l-0.22266,0.87109l0.56641,0.69531l0.89453,-0.03516l0.27344,-0.22266l0.06641,-0.07422l0.21875,-0.86719zM40.60938,60.26172l-0.89062,0.10156l-0.25391,0.24609l-0.05859,0.07813l-0.15625,0.88672l0.62109,0.64844l0.89063,-0.10547l0.25391,-0.24219l0.05859,-0.07812l0.15234,-0.88672zM38.17578,63.5625l-0.89062,0.10547l-0.25391,0.23828l-0.05859,0.08203l-0.15234,0.88281l0.61719,0.64844l0.89063,-0.10156l0.25391,-0.24219l0.05859,-0.08203l0.15234,-0.88281z"></path></g></g></svg>