<svg xmlns="http://www.w3.org/2000/svg" xmlns:xlink="http://www.w3.org/1999/xlink" viewBox="0,0,256,256" width="50px" height="50px" fill-rule="nonzero"><g fill="#950606" fill-rule="nonzero" stroke="none" stroke-width="1" stroke-linecap="butt" stroke-linejoin="miter" stroke-miterlimit="10" stroke-dasharray="" stroke-dashoffset="0" font-family="none" font-weight="none" font-size="none" text-anchor="none" style="mix-blend-mode: normal"><g transform="scale(5.12,5.12)"><path d="M25.20703,0l3.22461,9.08594l-0.99805,0.35352c-0.24994,0.08883 -0.45436,0.27331 -0.56827,0.51286c-0.11392,0.23955 -0.128,0.51455 -0.03915,0.76448l1.18359,3.33789c-1.77985,1.14014 -3.2622,2.69781 -4.31055,4.53906l-0.76758,-1.95898c-0.1287,-0.32771 -0.42023,-0.5636 -0.76758,-0.62109l-5.60352,-0.93359l-2.75977,-3.67969c-0.20035,-0.27548 -0.52714,-0.43004 -0.86719,-0.41016c-0.37032,0.0213 -0.69843,0.24582 -0.85241,0.58327c-0.15399,0.33746 -0.10855,0.73242 0.11804,1.0261l3,4c0.15452,0.20609 0.3826,0.34462 0.63672,0.38672l5.43945,0.90625l1.29297,3.30078c-0.36981,1.20477 -0.57227,2.48232 -0.57227,3.80664c0,0.16932 0.01894,0.33418 0.02539,0.50195l-4.14648,3.31836l-5.42773,-2.71484c-0.34892,-0.17464 -0.76754,-0.13042 -1.07227,0.11328l-5,4c-0.27923,0.22326 -0.41811,0.57854 -0.36431,0.93197c0.0538,0.35343 0.29209,0.65131 0.6251,0.78137c0.33301,0.13007 0.71011,0.07256 0.98921,-0.15085l4.5,-3.60156l5.42773,2.71484c0.34892,0.17464 0.76754,0.13042 1.07227,-0.11328l3.68945,-2.95117c0.76708,3.43802 2.89965,6.35898 5.79688,8.17773l-4.5293,2.08398c-0.35464,0.16319 -0.58191,0.51782 -0.58203,0.9082v2.5l-3.33398,2.5h-15.66602v-38h21.21484l-0.71094,-2h-21.50391c-0.552,0 -1,0.448 -1,1v40c0,0.552 0.448,1 1,1h39.28711c0.15591,0.03808 0.3187,0.03808 0.47461,0h2.23828c0.552,0 1,-0.448 1,-1v-9.83008c-0.611,0.661 -1.28,1.26464 -2,1.80664v7.02344h-1.04687l-3.04102,-3.47656l-0.80078,-3.20313c5.15486,-1.72704 8.88477,-6.59183 8.88477,-12.32031c0,-7.16786 -5.83214,-13 -13,-13c-0.40054,0 -0.79608,0.02295 -1.1875,0.05859l-1.20508,-3.39258c-0.1376,-0.38886 -0.49982,-0.65335 -0.91211,-0.66602c-0.12433,-0.00335 -0.24819,0.01652 -0.36523,0.05859l-1.00977,0.35742l-2.98828,-8.41602zM30.87109,4l0.70898,2h12.41992v7.02344c0.72,0.542 1.389,1.14564 2,1.80664v-9.83008c0,-0.6 -0.4,-1 -1,-1zM31.05273,10.27734l0.75781,2.13281c-0.69598,0.1763 -1.37112,0.40182 -2.01758,0.68555l-0.74805,-2.10547zM34.99609,14c6.08698,0 11,4.91302 11,11c0,5.15351 -3.52656,9.45296 -8.30078,10.6543c-0.02299,0.00505 -0.04579,0.01092 -0.06836,0.01758c-0.84403,0.2066 -1.72205,0.32813 -2.63086,0.32813c-1.46086,0 -2.85107,-0.29041 -4.125,-0.80469c-0.07673,-0.04316 -0.15882,-0.07599 -0.24414,-0.09766c-3.90489,-1.68675 -6.63086,-5.56483 -6.63086,-10.09766c0,-6.08698 4.91302,-11 11,-11zM32.02148,17.66797c-0.15708,-0.00156 -0.31231,0.0339 -0.45312,0.10352c-2.70466,1.28428 -4.57227,4.04612 -4.57227,7.22852c-0.0051,0.36064 0.18438,0.69608 0.49587,0.87789c0.3115,0.18181 0.69676,0.18181 1.00825,0c0.3115,-0.18181 0.50097,-0.51725 0.49587,-0.87789c0,-2.4016 1.40434,-4.46016 3.42969,-5.42187c0.42649,-0.19429 0.66086,-0.65869 0.56381,-1.1172c-0.09705,-0.4585 -0.49947,-0.78812 -0.96811,-0.79296zM30.41602,37.15039c1.42708,0.53995 2.96626,0.84961 4.58008,0.84961c0.74187,0 1.46556,-0.07535 2.17383,-0.19531l0.85938,3.4375c0.03883,0.15408 0.11382,0.29669 0.21875,0.41602l2.04883,2.3418h-17.29687l1.59961,-1.19922c0.25216,-0.18895 0.40053,-0.48568 0.40039,-0.80078v-2.35937z"></path></g></g></svg>