<svg xmlns="http://www.w3.org/2000/svg" xmlns:xlink="http://www.w3.org/1999/xlink" viewBox="0,0,256,256" width="80px" height="80px" fill-rule="nonzero"><g fill="#950606" fill-rule="nonzero" stroke="none" stroke-width="1" stroke-linecap="butt" stroke-linejoin="miter" stroke-miterlimit="10" stroke-dasharray="" stroke-dashoffset="0" font-family="none" font-weight="none" font-size="none" text-anchor="none" style="mix-blend-mode: normal"><g transform="scale(3.2,3.2)"><path d="M26,11c-0.55226,0.00006 -0.99994,0.44774 -1,1v3h-5c-0.55226,0.00006 -0.99994,0.44774 -1,1v1h-7.17383c-2.02508,0 -3.82617,1.45553 -3.82617,3.42383v0.15234c0,1.96829 1.80137,3.42383 3.82617,3.42383h7.17383v1c0.00006,0.55226 0.44774,0.99994 1,1h5v1.25195c0.00027,0.22646 0.0774,0.44612 0.21875,0.62305l6.78125,8.47656v2.64844c0.00006,0.55226 0.44774,0.99994 1,1h2v10c0.00006,0.55226 0.44774,0.99994 1,1h1v9c0.00006,0.55226 0.44774,0.99994 1,1h1v12.59766c0.667,0.468 1.333,0.93534 2,1.40234c0.667,-0.468 1.333,-0.93534 2,-1.40234v-12.59766h1c0.55226,-0.00006 0.99994,-0.44774 1,-1v-9h1c0.55226,-0.00006 0.99994,-0.44774 1,-1v-10h2c0.55226,-0.00006 0.99994,-0.44774 1,-1v-2.64844l6.78125,-8.47656c0.14135,-0.17693 0.21848,-0.39659 0.21875,-0.62305v-1.25195h5c0.55226,-0.00006 0.99994,-0.44774 1,-1v-1h7.29297c1.97951,0 3.70703,-1.48194 3.70703,-3.42383v-0.15234c0,-1.94243 -1.72752,-3.42383 -3.70703,-3.42383h-7.29297v-1c-0.00006,-0.55226 -0.44774,-0.99994 -1,-1h-5v-3c-0.00006,-0.55226 -0.44774,-0.99994 -1,-1zM27,13h28v3v9v1l-0.80078,0.40234l-0.1582,0.88086l0.35156,0.37695l-6.17383,7.71484c-0.14177,0.17745 -0.21892,0.39787 -0.21875,0.625v2h-2c-0.19815,-0.0025 -0.39257,0.05393 -0.55859,0.16211l-0.09375,-0.09961l-0.34766,-0.0625l-0.80078,0.40234l-0.1582,0.88086l0.61133,0.6543l0.34766,0.0625v9h-8v-9l0.80078,-0.40234l0.1582,-0.88086l-0.61133,-0.6543l-0.34766,-0.0625l-0.40039,0.20117c-0.17285,-0.13015 -0.38324,-0.20074 -0.59961,-0.20117h-2v-2c0.00017,-0.22713 -0.07698,-0.44755 -0.21875,-0.625l-6.1543,-7.68945l0.17383,-0.08789l0.1582,-0.88086l-0.61133,-0.6543l-0.34766,-0.0625v-0.83203c0.01785,-0.10799 0.01785,-0.21818 0,-0.32617v-8.67969c0.01721,-0.10608 0.01721,-0.21423 0,-0.32031zM21,17h4v7h-4zM57,17h4v7h-4zM11.82617,19h7.17383v3h-7.17383c-1.09719,0 -1.82617,-0.71612 -1.82617,-1.42383v-0.15234c0,-0.70771 0.72725,-1.42383 1.82617,-1.42383zM63,19h7.29297c1.01249,0 1.70703,0.68826 1.70703,1.42383v0.15234c0,0.73411 -0.69454,1.42383 -1.70703,1.42383h-7.29297zM31,26l-0.80078,0.40234l-0.1582,0.88086l0.61133,0.6543l0.34766,0.0625l0.80078,-0.40234l0.1582,-0.88086l-0.61133,-0.6543zM35,26l-0.80078,0.40234l-0.1582,0.88086l0.61133,0.6543l0.34766,0.0625l0.80078,-0.40234l0.1582,-0.88086l-0.61133,-0.6543zM39,26l-0.80078,0.40234l-0.1582,0.88086l0.61133,0.6543l0.34766,0.0625l0.80078,-0.40234l0.1582,-0.88086l-0.61133,-0.6543zM43,26l-0.80078,0.40234l-0.1582,0.88086l0.61133,0.6543l0.34766,0.0625l0.80078,-0.40234l0.1582,-0.88086l-0.61133,-0.6543zM47,26l-0.80078,0.40234l-0.1582,0.88086l0.61133,0.6543l0.34766,0.0625l0.80078,-0.40234l0.1582,-0.88086l-0.61133,-0.6543zM51,26l-0.80078,0.40234l-0.1582,0.88086l0.61133,0.6543l0.34766,0.0625l0.80078,-0.40234l0.1582,-0.88086l-0.61133,-0.6543zM41,38l-0.80078,0.40234l-0.1582,0.88086l0.61133,0.6543l0.34766,0.0625l0.80078,-0.40234l0.1582,-0.88086l-0.61133,-0.6543zM39,51h4v8h-4z"></path></g></g></svg>