<svg xmlns="http://www.w3.org/2000/svg" viewBox="0 0 492.93 124.34"><defs><style>.cls-1{fill:#fff;}.cls-2{fill:#a30000;}</style></defs><g id="Layer_2" data-name="Layer 2"><g id="Layer_3" data-name="Layer 3"><path class="cls-1" d="M140.64,45.77V29.55A29.55,29.55,0,0,0,111.09,0H9.16A9.16,9.16,0,0,0,0,9.16V124.34H36.29a9.61,9.61,0,0,0,9.45-7.82l7.62-40.07a6.44,6.44,0,0,1,7.54-5.13L65.34,48l-4.74-.9a8.56,8.56,0,0,1-4-1.91c-3.12-2.69-7.58-6.09-17.12-8.26-7.69-1.76-18.37,0-24.5,1.36a1.72,1.72,0,0,1-1.58-2.88c9.89-10.41,31-19.75,52.25-15.7L86.4,23.63a3.54,3.54,0,0,1,2.87,3.65l-.16,3.19,8.39,1.59,2-3.52a3.54,3.54,0,0,1,3.72-1.71l10.9,2.07A3.54,3.54,0,0,1,117,33l-3.88,20.42A3.52,3.52,0,0,1,109,56.27L98.06,54.2a3.54,3.54,0,0,1-2.84-3l-.6-4-8.4-1.6-1,3a3.55,3.55,0,0,1-4,2.34l-1-.19L75.76,74.14A5.25,5.25,0,0,1,81.1,80.6L74,117.9a5.43,5.43,0,0,0,5.33,6.44h61.3V101.93A26.61,26.61,0,0,0,114,75.32h-2.94A29.55,29.55,0,0,0,140.64,45.77Z"/><path class="cls-1" d="M65.09,76.61c-4-1.4-5.25-3.86-5.25-3.86L57,75.05s1.76,3.46,8.35,4.61c6.11,1.07,8.9-3,8.9-3S69.11,78,65.09,76.61Z"/><path class="cls-2" d="M262.26,47h0a13.22,13.22,0,0,0,13.21-13.21V32.9a12.38,12.38,0,0,0-12.38-12.38H245.37V61.17h7.83V47ZM253.2,28.35h8a5.42,5.42,0,0,1,5.42,5.42h0a5.42,5.42,0,0,1-5.42,5.41h-8Z"/><polygon class="cls-2" points="194.66 20.52 163.33 20.52 163.33 28.35 175.08 28.35 175.08 61.17 182.91 61.17 182.91 28.35 194.66 28.35 194.66 20.52"/><rect class="cls-2" x="214.67" y="36.93" width="40.66" height="7.83" transform="translate(275.84 -194.15) rotate(90)"/><polygon class="cls-2" points="427.56 20.52 417.94 36.93 417.58 36.93 407.97 20.52 400.14 20.52 413.85 43.93 413.85 61.17 421.68 61.17 421.68 43.93 435.39 20.52 427.56 20.52"/><polygon class="cls-2" points="364.08 61.17 348.35 40.24 362.88 20.52 353.15 20.52 339.57 38.95 339.57 20.52 331.74 20.52 331.74 61.17 339.57 61.17 339.57 41.5 354.35 61.17 364.08 61.17"/><polygon class="cls-2" points="284.79 53.34 284.79 20.52 276.96 20.52 276.96 61.17 278.02 61.17 284.79 61.17 300.72 61.17 300.72 53.34 284.79 53.34"/><polygon class="cls-2" points="327.38 28.35 327.38 20.52 310.94 20.52 304.68 20.52 303.11 20.52 303.11 61.17 304.68 61.17 310.94 61.17 327.38 61.17 327.38 53.34 310.94 53.34 310.94 44.76 325.56 44.76 325.56 36.93 310.94 36.93 310.94 28.35 327.38 28.35"/><path class="cls-2" d="M393.2,61.17H401L385.25,20.52h-7.83L361.64,61.17h7.83l3-7.63h17.8ZM375.47,45.71l5.87-15.1,5.86,15.1Z"/><path class="cls-2" d="M219.33,61h9.34l-9-15.27a13.21,13.21,0,0,0,7.53-11.93V32.9a12.37,12.37,0,0,0-12.37-12.38H197.07V61.17h7.83V47h5.86ZM204.9,28.35h8a5.42,5.42,0,0,1,5.42,5.42h0a5.42,5.42,0,0,1-5.42,5.41h-8Z"/><polygon class="cls-2" points="398.67 66.14 367.34 66.14 367.34 73.97 379.09 73.97 379.09 106.8 386.92 106.8 386.92 73.97 398.67 73.97 398.67 66.14"/><polygon class="cls-2" points="338.99 98.97 338.99 66.14 331.16 66.14 331.16 106.8 332.23 106.8 338.99 106.8 354.93 106.8 354.93 98.97 338.99 98.97"/><path class="cls-2" d="M175.08,66.14h-7.83V106.8h14.38A20.33,20.33,0,0,0,202,86.47h0a20.33,20.33,0,0,0-20.33-20.33Zm0,32.83V74h6.55a12.5,12.5,0,0,1,12.5,12.5h0A12.5,12.5,0,0,1,181.63,99Z"/><rect class="cls-2" x="340.73" y="82.56" width="40.66" height="7.83" transform="translate(447.53 -274.59) rotate(90)"/><rect class="cls-2" x="384.62" y="82.56" width="40.66" height="7.83" transform="translate(491.42 -318.48) rotate(90)"/><polygon class="cls-2" points="485.1 66.14 485.1 93.14 466.29 66.19 466.29 66.14 458.46 66.14 458.46 106.8 466.29 106.8 466.29 79.85 485.1 106.8 492.93 106.8 492.93 66.14 485.1 66.14"/><polygon class="cls-2" points="229.95 73.97 229.95 66.14 213.51 66.14 207.25 66.14 205.68 66.14 205.68 106.8 207.25 106.8 213.51 106.8 229.95 106.8 229.95 98.97 213.51 98.97 213.51 90.39 228.13 90.39 228.13 82.56 213.51 82.56 213.51 73.97 229.95 73.97"/><path class="cls-2" d="M433.6,65.1a21.12,21.12,0,1,0,21.12,21.11A21.12,21.12,0,0,0,433.6,65.1Zm0,34.82a13.71,13.71,0,1,1,13.7-13.71A13.7,13.7,0,0,1,433.6,99.92Z"/><path class="cls-2" d="M305.91,65.1A21.12,21.12,0,1,0,327,86.21,21.11,21.11,0,0,0,305.91,65.1Zm0,34.82a13.71,13.71,0,1,1,13.7-13.71A13.71,13.71,0,0,1,305.91,99.92Z"/><polygon class="cls-2" points="282.53 106.8 276.47 66.14 268.64 66.14 268.64 66.15 257.39 91.29 246.15 66.15 246.15 66.14 238.32 66.14 232.26 106.8 240.09 106.8 244.19 79.28 253.48 100.05 256.5 106.8 258.29 106.8 261.31 100.05 270.6 79.28 274.7 106.8 282.53 106.8"/></g></g></svg>