<svg xmlns="http://www.w3.org/2000/svg" viewBox="0 0 614.11 125.38"><g id="Layer_2" data-name="Layer 2"><g id="Layer_3" data-name="Layer 3"><path d="M140.64,45.77V29.55A29.55,29.55,0,0,0,111.09,0H9.16A9.16,9.16,0,0,0,0,9.16V124.34H36.29a9.61,9.61,0,0,0,9.45-7.82l7.62-40.07a6.44,6.44,0,0,1,7.54-5.13L65.34,48l-4.74-.9a8.56,8.56,0,0,1-4-1.91c-3.12-2.69-7.58-6.09-17.12-8.26-7.69-1.76-18.37,0-24.5,1.36a1.72,1.72,0,0,1-1.58-2.88c9.89-10.41,31-19.75,52.25-15.7L86.4,23.63a3.54,3.54,0,0,1,2.87,3.65l-.16,3.19,8.39,1.59,2-3.52a3.54,3.54,0,0,1,3.72-1.71l10.9,2.07A3.54,3.54,0,0,1,117,33l-3.88,20.42A3.52,3.52,0,0,1,109,56.27L98.06,54.2a3.54,3.54,0,0,1-2.84-3l-.6-4-8.4-1.6-1,3a3.55,3.55,0,0,1-4,2.34l-1-.19L75.76,74.14A5.25,5.25,0,0,1,81.1,80.6L74,117.9a5.43,5.43,0,0,0,5.33,6.44h61.3V101.93A26.61,26.61,0,0,0,114,75.32h-2.94A29.55,29.55,0,0,0,140.64,45.77Z"/><path d="M65.09,76.61c-4-1.4-5.25-3.86-5.25-3.86L57,75.05s1.76,3.46,8.35,4.61c6.11,1.07,8.9-3,8.9-3S69.11,78,65.09,76.61Z"/><path d="M287.53,40h0a18.7,18.7,0,0,0,18.7-18.7V20A17.52,17.52,0,0,0,288.71,2.47H263.63V60h11.08V40ZM274.71,13.56H286a7.66,7.66,0,0,1,7.67,7.67h0A7.67,7.67,0,0,1,286,28.9H274.71Z"/><polygon points="191.82 2.47 147.48 2.47 147.48 13.56 164.11 13.56 164.11 60.03 175.2 60.03 175.2 13.56 191.82 13.56 191.82 2.47"/><rect x="220.16" y="25.71" width="57.56" height="11.09" transform="translate(280.19 -217.69) rotate(90)"/><polygon points="521.56 2.47 507.95 25.71 507.43 25.71 493.82 2.47 482.74 2.47 502.15 35.62 502.15 60.03 513.24 60.03 513.24 35.62 532.65 2.47 521.56 2.47"/><polygon points="431.69 60.03 409.43 30.39 430 2.47 416.22 2.47 397 28.57 397 2.47 385.91 2.47 385.91 60.03 397 60.03 397 32.18 417.92 60.03 431.69 60.03"/><polygon points="319.43 48.94 319.43 2.47 308.34 2.47 308.34 60.03 309.86 60.03 319.43 60.03 342 60.03 342 48.94 319.43 48.94"/><polygon points="379.73 13.56 379.73 2.47 356.46 2.47 347.59 2.47 345.37 2.47 345.37 60.03 347.59 60.03 356.46 60.03 379.73 60.03 379.73 48.94 356.46 48.94 356.46 36.79 377.16 36.79 377.16 25.71 356.46 25.71 356.46 13.56 379.73 13.56"/><path d="M472.92,60H484L461.67,2.47H450.58L428.24,60h11.09l4.19-10.81h25.21Zm-25.1-21.89,8.3-21.39,8.3,21.39Z"/><path d="M226.76,59.8H240l-12.8-21.62a18.71,18.71,0,0,0,10.67-16.9V20A17.53,17.53,0,0,0,220.33,2.47H195.24V60h11.09V40h8.3ZM206.33,13.56h11.31a7.67,7.67,0,0,1,7.67,7.67h0a7.68,7.68,0,0,1-7.67,7.67H206.33Z"/><polygon points="480.66 67.07 436.31 67.07 436.31 78.15 452.94 78.15 452.94 124.63 464.03 124.63 464.03 78.15 480.66 78.15 480.66 67.07"/><polygon points="396.18 113.54 396.18 67.07 385.09 67.07 385.09 124.63 386.6 124.63 396.18 124.63 418.74 124.63 418.74 113.54 396.18 113.54"/><path d="M164.11,67.07H153v57.56h20.37a28.79,28.79,0,0,0,28.78-28.78h0a28.78,28.78,0,0,0-28.78-28.78Zm0,46.47V78.15h9.28a17.69,17.69,0,0,1,17.69,17.7h0a17.69,17.69,0,0,1-17.69,17.69Z"/><rect x="398.64" y="90.3" width="57.56" height="11.09" transform="translate(523.26 -331.57) rotate(90)"/><rect x="460.77" y="90.3" width="57.56" height="11.09" transform="translate(585.4 -393.71) rotate(90)"/><polygon points="603.03 67.07 603.03 105.28 576.39 67.13 576.39 67.07 565.31 67.07 565.31 124.63 576.39 124.63 576.39 86.47 603.03 124.63 614.11 124.63 614.11 67.07 603.03 67.07"/><polygon points="241.8 78.15 241.8 67.07 218.52 67.07 209.66 67.07 207.44 67.07 207.44 124.63 209.66 124.63 218.52 124.63 241.8 124.63 241.8 113.54 218.52 113.54 218.52 101.39 239.22 101.39 239.22 90.3 218.52 90.3 218.52 78.15 241.8 78.15"/><path d="M530.12,65.58A29.9,29.9,0,1,0,560,95.48,29.9,29.9,0,0,0,530.12,65.58Zm0,49.3a19.4,19.4,0,1,1,19.4-19.4A19.39,19.39,0,0,1,530.12,114.88Z"/><path d="M349.33,65.58a29.9,29.9,0,1,0,29.9,29.9A29.9,29.9,0,0,0,349.33,65.58Zm0,49.3a19.4,19.4,0,1,1,19.4-19.4A19.39,19.39,0,0,1,349.33,114.88Z"/><polygon points="316.23 124.63 307.66 67.07 296.57 67.07 296.57 67.08 280.65 102.66 264.72 67.08 264.73 67.07 253.64 67.07 245.06 124.63 256.15 124.63 261.95 85.66 275.1 115.06 279.38 124.63 281.92 124.63 286.19 115.06 299.34 85.66 305.15 124.63 316.23 124.63"/></g></g></svg>