<svg xmlns="http://www.w3.org/2000/svg" viewBox="0 0 329.6 86.82"><defs><style>.cls-1{fill:#fff;}</style></defs><g id="Layer_2" data-name="Layer 2"><g id="Layer_3" data-name="Layer 3"><path class="cls-1" d="M98.92,26.5h0a13.21,13.21,0,0,0,13.21-13.21v-.91A12.38,12.38,0,0,0,99.75,0H82V40.66h7.83V26.5Zm-9-18.67h8a5.42,5.42,0,0,1,5.41,5.42h0a5.42,5.42,0,0,1-5.41,5.42h-8Z"/><polygon class="cls-1" points="31.32 0 0 0 0 7.83 11.75 7.83 11.75 40.66 19.58 40.66 19.58 7.83 31.32 7.83 31.32 0"/><rect class="cls-1" x="51.33" y="16.41" width="40.66" height="7.83" transform="translate(91.99 -51.33) rotate(90)"/><polygon class="cls-1" points="264.22 0 254.61 16.41 254.25 16.41 244.63 0 236.8 0 250.51 23.41 250.51 40.66 258.34 40.66 258.34 23.41 272.05 0 264.22 0"/><polygon class="cls-1" points="200.75 40.66 185.02 19.72 199.55 0 189.82 0 176.24 18.43 176.24 0 168.41 0 168.41 40.66 176.24 40.66 176.24 20.98 191.02 40.66 200.75 40.66"/><polygon class="cls-1" points="121.45 32.83 121.45 0 113.62 0 113.62 40.66 114.69 40.66 121.45 40.66 137.39 40.66 137.39 32.83 121.45 32.83"/><polygon class="cls-1" points="164.05 7.83 164.05 0 147.61 0 141.35 0 139.78 0 139.78 40.66 141.35 40.66 147.61 40.66 164.05 40.66 164.05 32.83 147.61 32.83 147.61 24.24 162.23 24.24 162.23 16.41 147.61 16.41 147.61 7.83 164.05 7.83"/><path class="cls-1" d="M229.87,40.66h7.83L221.92,0h-7.83L198.31,40.66h7.83l3-7.64h17.81ZM212.14,25.19,218,10.09l5.87,15.1Z"/><path class="cls-1" d="M56,40.49h9.33l-9-15.27a13.21,13.21,0,0,0,7.54-11.93v-.91A12.38,12.38,0,0,0,51.45,0H33.73V40.66h7.84V26.5h5.86ZM41.57,7.83h8A5.42,5.42,0,0,1,55,13.25h0a5.42,5.42,0,0,1-5.42,5.42h-8Z"/><polygon class="cls-1" points="235.33 45.63 204.01 45.63 204.01 53.46 215.76 53.46 215.76 86.28 223.59 86.28 223.59 53.46 235.33 53.46 235.33 45.63"/><polygon class="cls-1" points="175.66 78.45 175.66 45.63 167.83 45.63 167.83 86.28 168.9 86.28 175.66 86.28 191.6 86.28 191.6 78.45 175.66 78.45"/><path class="cls-1" d="M11.75,45.63H3.92V86.28H18.3A20.33,20.33,0,0,0,38.63,66h0A20.33,20.33,0,0,0,18.3,45.63Zm0,32.82v-25H18.3A12.5,12.5,0,0,1,30.8,66h0a12.5,12.5,0,0,1-12.5,12.5Z"/><rect class="cls-1" x="177.4" y="62.04" width="40.66" height="7.83" transform="translate(263.68 -131.78) rotate(90)"/><rect class="cls-1" x="221.29" y="62.04" width="40.66" height="7.83" transform="translate(307.57 -175.66) rotate(90)"/><polygon class="cls-1" points="321.77 45.63 321.77 72.62 302.95 45.67 302.95 45.63 295.12 45.63 295.12 86.28 302.95 86.28 302.95 59.34 321.77 86.28 329.6 86.28 329.6 45.63 321.77 45.63"/><polygon class="cls-1" points="66.62 53.46 66.62 45.63 50.18 45.63 43.92 45.63 42.35 45.63 42.35 86.28 43.92 86.28 50.18 86.28 66.62 86.28 66.62 78.45 50.18 78.45 50.18 69.87 64.8 69.87 64.8 62.04 50.18 62.04 50.18 53.46 66.62 53.46"/><path class="cls-1" d="M270.27,44.58A21.12,21.12,0,1,0,291.39,65.7,21.11,21.11,0,0,0,270.27,44.58Zm0,34.82A13.71,13.71,0,1,1,284,65.7,13.71,13.71,0,0,1,270.27,79.4Z"/><path class="cls-1" d="M142.57,44.58A21.12,21.12,0,1,0,163.69,65.7,21.12,21.12,0,0,0,142.57,44.58Zm0,34.82a13.71,13.71,0,1,1,13.71-13.7A13.7,13.7,0,0,1,142.57,79.4Z"/><polygon class="cls-1" points="119.2 86.28 113.14 45.63 105.31 45.63 105.31 45.63 94.06 70.77 82.81 45.63 82.81 45.63 74.98 45.63 68.93 86.28 76.76 86.28 80.86 58.76 90.14 79.53 93.17 86.28 94.96 86.28 97.98 79.53 107.27 58.76 111.36 86.28 119.2 86.28"/></g></g></svg>