<svg xmlns="http://www.w3.org/2000/svg" xmlns:xlink="http://www.w3.org/1999/xlink" viewBox="0,0,256,256" width="80px" height="80px" fill-rule="nonzero"><g fill="#950606" fill-rule="nonzero" stroke="none" stroke-width="1" stroke-linecap="butt" stroke-linejoin="miter" stroke-miterlimit="10" stroke-dasharray="" stroke-dashoffset="0" font-family="none" font-weight="none" font-size="none" text-anchor="none" style="mix-blend-mode: normal"><g transform="scale(3.2,3.2)"><path d="M21,10c-3.85286,0 -6.99884,3.14646 -7,7c0,3.85306 3.14694,7 7,7c3.8539,0 7,-3.14714 7,-7v-1h-0.20312c-0.50668,-3.36249 -3.29753,-6 -6.79687,-6zM40,10c-3.85286,0 -6.99884,3.14646 -7,7c0,3.85306 3.14694,7 7,7c3.8539,0 7,-3.14714 7,-7v-1h-0.20312c-0.50668,-3.36249 -3.29753,-6 -6.79687,-6zM59,10c-3.85415,0 -7,3.14585 -7,7c0,3.85415 3.14585,7 7,7c3.85415,0 7,-3.14585 7,-7c0,-3.85415 -3.14585,-7 -7,-7zM21,12c2.7723,0 5,2.2277 5,5c0,2.77114 -2.2279,5 -5,5c-2.77094,0 -5,-2.22906 -5,-5c0.00084,-2.77247 2.22886,-5 5,-5zM40,12c2.7723,0 5,2.2277 5,5c0,2.77114 -2.2279,5 -5,5c-2.77094,0 -5,-2.22906 -5,-5c0.00084,-2.77247 2.22886,-5 5,-5zM59,12c2.77327,0 5,2.22673 5,5c0,2.77327 -2.22673,5 -5,5c-2.77327,0 -5,-2.22673 -5,-5c0,-2.77327 2.22673,-5 5,-5zM17,26c-4.40644,0 -8,3.59356 -8,8v15c0,2.19733 1.80267,4 4,4h1v13c0,2.19733 1.80267,4 4,4h7c0.36064,0.0051 0.69608,-0.18438 0.87789,-0.49587c0.18181,-0.3115 0.18181,-0.69676 0,-1.00825c-0.18181,-0.3115 -0.51725,-0.50097 -0.87789,-0.49587h-7c-1.11667,0 -2,-0.88333 -2,-2v-15h-3c-1.11667,0 -2,-0.88333 -2,-2v-15c0,-3.32556 2.67444,-6 6,-6h8c1.0967,0 2.11734,0.29199 3,0.80273c0.30971,0.18954 0.69782,0.19632 1.01397,0.01772c0.31614,-0.1786 0.51065,-0.51453 0.50815,-0.87763c-0.0025,-0.3631 -0.2016,-0.69632 -0.52017,-0.87056c-1.17734,-0.68126 -2.54865,-1.07227 -4.00195,-1.07227zM42.09961,26v2l-0.69141,-1.72461l-1.375,1.31055l-1.21484,-1.27344c-0.18883,-0.19836 -0.45074,-0.31061 -0.72461,-0.31055c-2.71732,0 -4.84321,0.99844 -6.33789,2.69727c-1.49468,1.69882 -2.4026,4.00301 -3.12695,6.69727c-0.00504,0.01745 -0.00959,0.03504 -0.01367,0.05273l-2.51953,11.85742c-0.38146,1.60033 0.6226,3.23189 2.22266,3.61328c0.00065,0 0.0013,0 0.00195,0c0.28112,0.06623 0.56796,0.09329 0.85156,0.07813c1.29927,-0.06775 2.44569,-0.98643 2.75977,-2.30078l1.06836,-4.02734v21.33008c0,2.19733 1.80267,4 4,4h6c2.19733,0 4,-1.80267 4,-4v-15h0.61719h0.38281c2.19733,0 4,-1.80267 4,-4v-11.09961c0,-5.51116 -4.39643,-9.90039 -9.90039,-9.90039zM55,26c-0.79274,0 -1.56119,0.11563 -2.28711,0.33203c-0.35333,0.09249 -0.62814,0.37025 -0.71687,0.72454c-0.08873,0.3543 0.02274,0.72879 0.29078,0.97689c0.26804,0.2481 0.65001,0.33036 0.99641,0.21458c0.54208,-0.1616 1.11754,-0.24805 1.7168,-0.24805h8c3.32556,0 6,2.67444 6,6v15c0,1.11667 -0.88333,2 -2,2h-3v15c0,1.11667 -0.88333,2 -2,2h-6c-1.11667,0 -2,-0.88333 -2,-2v-13c0.0051,-0.36064 -0.18438,-0.69608 -0.49587,-0.87789c-0.3115,-0.18181 -0.69676,-0.18181 -1.00825,0c-0.3115,0.18181 -0.50097,0.51725 -0.49587,0.87789v13c0,2.19733 1.80267,4 4,4h6c2.19733,0 4,-1.80267 4,-4v-13h1c2.19733,0 4,-1.80267 4,-4v-15c0,-4.40644 -3.59356,-8 -8,-8zM42.43164,28.06445c4.2831,0.17675 7.56836,3.49207 7.56836,7.83594v11.09961c0,1.11667 -0.88333,2 -2,2h-0.38281h-1.61719c-0.55226,0.00006 -0.99994,0.44774 -1,1v16c0,1.11667 -0.88333,2 -2,2h-6c-1.11667,0 -2,-0.88333 -2,-2v-29c-0.00023,-0.50229 -0.37299,-0.92649 -0.87108,-0.99129c-0.4981,-0.0648 -0.96698,0.24991 -1.09571,0.73543l-3.04102,11.46289c-0.00206,0.00844 -0.00402,0.0169 -0.00586,0.02539c-0.10788,0.45165 -0.49319,0.74533 -0.91992,0.76758c-0.08978,0.0048 -0.18504,-0.002 -0.28516,-0.02539h-0.00195c-0.54691,-0.13129 -0.86869,-0.65797 -0.73828,-1.20508c0.00205,-0.00779 0.004,-0.0156 0.00586,-0.02344l2.51367,-11.83008l0.00195,-0.00781c0.68725,-2.55371 1.53903,-4.5725 2.69531,-5.88672c1.08332,-1.23128 2.45515,-1.86908 4.47266,-1.95312l1.54688,1.62109c0.38054,0.39895 1.01218,0.41468 1.41211,0.03516zM39.98438,30.98633c-0.55152,0.00862 -0.99193,0.46214 -0.98437,1.01367v9c-0.0051,0.36064 0.18438,0.69608 0.49587,0.87789c0.3115,0.18181 0.69676,0.18181 1.00825,0c0.3115,-0.18181 0.50097,-0.51725 0.49587,-0.87789v-9c0.0037,-0.2703 -0.10218,-0.53059 -0.29351,-0.72155c-0.19133,-0.19097 -0.45182,-0.29634 -0.72212,-0.29212zM15,35c-0.55228,0 -1,0.44772 -1,1c0,0.55228 0.44772,1 1,1c0.55228,0 1,-0.44772 1,-1c0,-0.55228 -0.44772,-1 -1,-1zM65,35c-0.55228,0 -1,0.44772 -1,1c0,0.55228 0.44772,1 1,1c0.55228,0 1,-0.44772 1,-1c0,-0.55228 -0.44772,-1 -1,-1zM46,37c-0.55228,0 -1,0.44772 -1,1c0,0.55228 0.44772,1 1,1c0.55228,0 1,-0.44772 1,-1c0,-0.55228 -0.44772,-1 -1,-1zM15,39c-0.55228,0 -1,0.44772 -1,1c0,0.55228 0.44772,1 1,1c0.55228,0 1,-0.44772 1,-1c0,-0.55228 -0.44772,-1 -1,-1zM65,39c-0.55228,0 -1,0.44772 -1,1c0,0.55228 0.44772,1 1,1c0.55228,0 1,-0.44772 1,-1c0,-0.55228 -0.44772,-1 -1,-1zM46,41c-0.55228,0 -1,0.44772 -1,1c0,0.55228 0.44772,1 1,1c0.55228,0 1,-0.44772 1,-1c0,-0.55228 -0.44772,-1 -1,-1zM15,43c-0.55228,0 -1,0.44772 -1,1c0,0.55228 0.44772,1 1,1c0.55228,0 1,-0.44772 1,-1c0,-0.55228 -0.44772,-1 -1,-1zM65,43c-0.55228,0 -1,0.44772 -1,1c0,0.55228 0.44772,1 1,1c0.55228,0 1,-0.44772 1,-1c0,-0.55228 -0.44772,-1 -1,-1zM46,45c-0.55228,0 -1,0.44772 -1,1c0,0.55228 0.44772,1 1,1c0.55228,0 1,-0.44772 1,-1c0,-0.55228 -0.44772,-1 -1,-1zM15,47c-0.55228,0 -1,0.44772 -1,1c0,0.55228 0.44772,1 1,1c0.55228,0 1,-0.44772 1,-1c0,-0.55228 -0.44772,-1 -1,-1zM65,47c-0.55228,0 -1,0.44772 -1,1c0,0.55228 0.44772,1 1,1c0.55228,0 1,-0.44772 1,-1c0,-0.55228 -0.44772,-1 -1,-1zM26,53c-0.55226,0.00006 -0.99994,0.44774 -1,1v10c0.00006,0.55226 0.44774,0.99994 1,1h4c0.55226,-0.00006 0.99994,-0.44774 1,-1v-10c-0.00006,-0.55226 -0.44774,-0.99994 -1,-1zM27,55h2v8h-2z"></path></g></g></svg>